HIERARCHY
ROOT Hips
{
 OFFSET 0.000000 0.000000 0.000000
 CHANNELS 6 Xposition Yposition Zposition Yrotation Xrotation Zrotation
 JOINT Chest
 {
  OFFSET 0.000000 16.280000 -0.014500
  CHANNELS 3 Yrotation Xrotation Zrotation
  JOINT Chest2
  {
   OFFSET 0.000000 10.601900 0.029500
   CHANNELS 3 Yrotation Xrotation Zrotation
   JOINT Chest3
   {
    OFFSET 0.000000 10.554800 0.000000
    CHANNELS 3 Yrotation Xrotation Zrotation
    JOINT Chest4
    {
     OFFSET 0.000000 10.544000 0.000000
     CHANNELS 3 Yrotation Xrotation Zrotation
     JOINT Neck
     {
      OFFSET 0.000000 16.186500 0.000000
      CHANNELS 3 Yrotation Xrotation Zrotation
      JOINT Head
      {
       OFFSET 0.000000 9.876700 0.062400
       CHANNELS 3 Yrotation Xrotation Zrotation
       End Site
       {
        OFFSET 0.000000 18.635100 0.032900
       }
      }
     }
     JOINT RightCollar
     {
      OFFSET -3.550000 10.761000 0.000000
      CHANNELS 3 Yrotation Xrotation Zrotation
      JOINT RightShoulder
      {
       OFFSET -16.915100 0.000000 0.000000
       CHANNELS 3 Yrotation Xrotation Zrotation
       JOINT RightElbow
       {
        OFFSET 0.000000 -31.241900 0.000000
        CHANNELS 3 Yrotation Xrotation Zrotation
        JOINT RightWrist
        {
         OFFSET 0.000000 -25.690800 0.013700
         CHANNELS 3 Yrotation Xrotation Zrotation
         End Site
         {
          OFFSET 0.000000 -19.336200 0.000000
         }
        }
       }
      }
     }
     JOINT LeftCollar
     {
      OFFSET 3.550000 10.761000 0.000000
      CHANNELS 3 Yrotation Xrotation Zrotation
      JOINT LeftShoulder
      {
       OFFSET 16.915100 0.000000 0.000000
       CHANNELS 3 Yrotation Xrotation Zrotation
       JOINT LeftElbow
       {
        OFFSET 0.000000 -31.241900 0.000000
        CHANNELS 3 Yrotation Xrotation Zrotation
        JOINT LeftWrist
        {
         OFFSET 0.000000 -25.690800 0.013700
         CHANNELS 3 Yrotation Xrotation Zrotation
         End Site
         {
          OFFSET 0.000000 -19.336200 0.000000
         }
        }
       }
      }
     }
    }
   }
  }
 }
 JOINT RightHip
 {
  OFFSET -13.350800 0.071600 0.007200
  CHANNELS 3 Yrotation Xrotation Zrotation
  JOINT RightKnee
  {
   OFFSET 0.000000 -49.946400 0.002700
   CHANNELS 3 Yrotation Xrotation Zrotation
   JOINT RightAnkle
   {
    OFFSET 0.000000 -42.233900 0.021900
    CHANNELS 3 Yrotation Xrotation Zrotation
    JOINT RightToe
    {
     OFFSET 0.000000 -11.862800 19.724700
     CHANNELS 3 Yrotation Xrotation Zrotation
     End Site
     {
      OFFSET 0.000000 -1.715400 7.529500
     }
    }
   }
  }
 }
 JOINT LeftHip
 {
  OFFSET 13.350800 0.071600 0.007200
  CHANNELS 3 Yrotation Xrotation Zrotation
  JOINT LeftKnee
  {
   OFFSET 0.000000 -49.946400 0.002700
   CHANNELS 3 Yrotation Xrotation Zrotation
   JOINT LeftAnkle
   {
    OFFSET 0.000000 -42.233900 0.021900
    CHANNELS 3 Yrotation Xrotation Zrotation
    JOINT LeftToe
    {
     OFFSET 0.000000 -11.862800 19.724700
     CHANNELS 3 Yrotation Xrotation Zrotation
     End Site
     {
      OFFSET 0.000000 -1.715400 7.529500
     }
    }
   }
  }
 }
}
MOTION
Frames: 7
Frame Time: 0.008333
0.000000 103.775900 0.000000 0.000000 -5.767877 0.000000 0.000000 11.653817 0.000000 0.000000 -5.885947 0.000000 0.000000 -0.000000 0.000000 0.000000 -0.000000 0.000000 0.000000 12.528835 0.000000 0.000000 0.711642 0.000000 0.000000 -0.000000 0.000000 0.000000 0.000000 -90.000000 0.000000 -2.309062 0.000000 0.000000 2.309062 0.000000 0.000000 -0.000000 0.000000 0.000000 -0.000000 90.000000 0.000000 -2.309062 0.000000 0.000000 2.309062 0.000000 0.000000 8.520406 0.000000 0.000000 1.905762 0.000000 -0.000000 -4.658285 0.000000 0.000000 -0.000000 0.000000 0.000000 8.520406 0.000000 0.000000 1.905762 0.000000 -0.000000 -4.658285 0.000000 0.000000 -0.000000 0.000000
45.737930 153.440511 37.415236 -171.545678 -20.674610 -0.776209 -2.861042 8.353780 2.022604 -0.211354 0.439411 0.101910 -0.268486 0.776795 0.221695 -2.547049 7.759747 2.051633 -6.638514 17.616018 -5.195691 -5.990394 -6.931521 -4.092795 2.672742 4.523715 -3.935162 8.343468 -5.090381 -3.998815 57.038540 -45.875912 -50.064761 -1.404831 12.228891 9.184157 -2.333695 8.485797 0.407826 6.290469 1.574229 -1.054673 -38.467869 -55.814269 33.032028 3.212850 -6.072336 5.346784 5.114673 -49.130627 -15.512600 -163.289283 69.317244 -153.140383 -5.717342 -36.519475 2.936685 0.395003 -0.086493 0.178768 -16.072164 -50.702879 0.993903 153.198526 70.360971 149.231464 0.420622 -34.070941 -4.627966 -0.097827 0.128770 0.017431
48.329526 146.151863 36.855730 -171.672166 -20.672722 -0.884682 -2.863290 8.345685 2.090952 -0.128799 0.451100 0.143439 -0.335132 0.779674 0.206112 -2.609280 7.778452 2.103696 -6.509206 17.779005 -5.184115 -5.849934 -6.757752 -4.108154 2.652144 4.614648 -3.973769 8.134791 -5.148617 -3.943471 56.964332 -46.572517 -50.303757 -1.326401 12.504645 9.905472 -2.299190 8.478010 0.402098 6.289819 1.513284 -1.006556 -38.337435 -55.807360 32.964626 3.279523 -6.176797 5.500976 5.154275 -49.107629 -15.431841 -163.397178 69.362722 -153.157198 -5.485010 -36.565652 2.905797 0.235960 -0.007591 0.141881 -15.687322 -50.692592 0.994749 153.305648 70.389158 149.443320 0.317236 -34.007170 -4.519133 -0.088922 0.093134 -0.053533
50.474569 140.152620 36.391427 -171.761131 -20.702298 -1.052781 -2.889367 8.375427 2.207766 -0.047697 0.459516 0.184364 -0.402790 0.788765 0.188913 -2.666193 7.807967 2.151877 -6.383835 17.912732 -5.171220 -5.714281 -6.615980 -4.121213 2.631996 4.703375 -4.012772 7.942037 -5.209954 -3.921110 56.829887 -47.362937 -50.497884 -1.279045 12.799315 10.609474 -2.260716 8.467741 0.393656 6.295490 1.435982 -0.947560 -38.237726 -55.792958 32.919257 3.332393 -6.279727 5.656864 5.082020 -49.061379 -15.244785 -163.452837 69.415369 -153.134167 -5.297229 -36.550658 2.873466 0.110584 0.005255 0.066510 -15.419566 -50.644413 1.075978 153.454152 70.412378 149.683706 0.230150 -33.963028 -4.391672 -0.080031 0.053428 -0.048157
52.015904 135.821680 36.059837 -171.819318 -20.746338 -1.190463 -2.921438 8.424182 2.298097 -0.057124 0.461651 0.186632 -0.406331 0.804020 0.197541 -2.718442 7.848725 2.195149 -6.261999 18.015350 -5.155886 -5.583067 -6.508332 -4.130659 2.615894 4.786121 -4.049080 7.756913 -5.271327 -3.936074 56.639804 -48.250533 -50.637162 -1.263959 13.118125 11.297433 -2.219392 8.455516 0.385911 6.307245 1.344019 -0.882265 -38.163283 -55.772971 32.889401 3.376805 -6.375279 5.822050 4.992763 -49.013593 -15.072236 -163.435504 69.464723 -153.074253 -5.230642 -36.511192 2.866695 0.075035 0.007402 0.045131 -15.164044 -50.594163 1.109798 153.614645 70.438665 149.920734 0.146806 -33.938894 -4.248812 -0.068765 0.032205 -0.041370
52.988226 133.087691 35.857115 -171.868248 -20.792690 -1.318654 -2.961967 8.477970 2.374672 -0.060631 0.465636 0.193334 -0.415801 0.820319 0.201624 -2.767000 7.899338 2.234241 -6.143926 18.088386 -5.137188 -5.456782 -6.433270 -4.135446 2.604344 4.856872 -4.080846 7.574655 -5.324907 -3.991651 56.401079 -49.237080 -50.717989 -1.281299 13.463694 11.974125 -2.176171 8.439925 0.381275 6.322239 1.243458 -0.818312 -38.110169 -55.749243 32.873299 3.419371 -6.462598 6.005868 4.885024 -48.972490 -14.880726 -163.339915 69.511557 -152.961980 -5.205204 -36.458561 2.868499 0.074197 0.004346 0.044625 -14.926263 -50.545268 1.137533 153.781365 70.467188 150.155029 0.056338 -33.929040 -4.070634 -0.050162 0.017540 -0.030173
53.516593 131.588324 35.747331 -171.898434 -20.868672 -1.427015 -3.021283 8.563826 2.419730 -0.152088 0.476165 0.160782 -0.336812 0.832711 0.244314 -2.813107 7.956520 2.271283 -6.000716 18.080367 -5.130182 -5.358100 -6.323815 -4.116166 2.595319 4.924867 -4.111963 7.398743 -5.380189 -4.084546 56.102287 -50.330673 -50.730838 -1.318194 13.849810 12.658538 -2.132664 8.420146 0.381078 6.337592 1.142821 -0.761973 -38.065171 -55.723307 32.871866 3.462387 -6.545709 6.204477 4.783974 -48.897140 -14.723103 -163.309111 69.550986 -152.922339 -5.210423 -36.418332 2.881734 0.078348 -0.005220 0.047116 -14.683364 -50.476160 1.121077 153.949378 70.496416 150.388377 -0.007063 -33.910003 -3.959577 -0.040781 0.013419 -0.024529
